<svg width="134" height="40" viewBox="0 0 134 40" fill="none" xmlns="http://www.w3.org/2000/svg">
<g clip-path="url(#clip0_13_239)">
<path fill-rule="evenodd" clip-rule="evenodd" d="M83.131 31.2812C75.344 36.9666 64.0573 40 54.3396 40C40.7139 40 28.4472 35.0079 19.167 26.7052C18.4379 26.0523 19.0912 25.1625 19.9661 25.671C29.9813 31.443 42.3646 34.9155 55.1562 34.9155C63.7831 34.9155 73.2733 33.1475 81.9994 29.4786C83.3176 28.9239 84.4201 30.3337 83.131 31.2812Z" fill="white"/>
<path fill-rule="evenodd" clip-rule="evenodd" d="M86.3682 27.6123C85.3766 26.3527 79.7887 27.0172 77.2805 27.3119C76.5164 27.4043 76.3998 26.7456 77.088 26.2719C81.5386 23.1692 88.8414 24.0647 89.693 25.1047C90.5446 26.1505 89.4714 33.4017 85.2891 36.8626C84.6475 37.3942 84.0351 37.1111 84.3209 36.4062C85.26 34.0835 87.3657 28.8777 86.3682 27.6123Z" fill="white"/>
<path fill-rule="evenodd" clip-rule="evenodd" d="M77.4555 4.36807V1.35204C77.4555 0.895594 77.8055 0.589369 78.2255 0.589369H91.857C92.2945 0.589369 92.6445 0.901372 92.6445 1.35204V3.93474C92.6387 4.36807 92.2712 4.9343 91.6179 5.82987L84.5542 15.8197C87.179 15.7562 89.9497 16.1433 92.3295 17.4722C92.8661 17.7727 93.012 18.2118 93.0528 18.6451V21.8634C93.0528 22.3025 92.5628 22.8167 92.0495 22.5509C87.8556 20.3727 82.2852 20.1358 77.648 22.574C77.1755 22.8283 76.6797 22.3198 76.6797 21.8807V18.8242C76.6797 18.3331 76.6856 17.4953 77.1814 16.75L85.365 5.12497H78.243C77.8055 5.12497 77.4555 4.81875 77.4555 4.36807Z" fill="white"/>
<path fill-rule="evenodd" clip-rule="evenodd" d="M27.7298 23.1865H23.5826C23.1859 23.1576 22.871 22.8629 22.8418 22.4874V1.40405C22.8418 0.982265 23.1976 0.647148 23.6409 0.647148H27.5081C27.9106 0.66447 28.2314 0.970706 28.2606 1.35204V4.10807H28.3364C29.3455 1.44449 31.2412 0.202253 33.7961 0.202253C36.3917 0.202253 38.0133 1.44449 39.1798 4.10807C40.1831 1.44449 42.4638 0.202253 44.9078 0.202253C46.646 0.202253 48.5475 0.912927 49.7083 2.50761C51.0207 4.28141 50.7524 6.85832 50.7524 9.11746L50.7466 22.4238C50.7466 22.8456 50.3908 23.1865 49.9475 23.1865H45.8061C45.3919 23.1576 45.0595 22.8283 45.0595 22.4238V11.2495C45.0595 10.3597 45.1411 8.141 44.9428 7.29744C44.6336 5.88187 43.7062 5.4832 42.5046 5.4832C41.5014 5.4832 40.4514 6.14765 40.0256 7.21077C39.5998 8.27389 39.6407 10.0535 39.6407 11.2495V22.4238C39.6407 22.8456 39.2848 23.1865 38.8415 23.1865H34.7002C34.2802 23.1576 33.9535 22.8283 33.9535 22.4238L33.9477 11.2495C33.9477 8.8979 34.3385 5.43697 31.3929 5.43697C28.4123 5.43697 28.5289 8.81123 28.5289 11.2495V22.4238C28.5289 22.8456 28.1731 23.1865 27.7298 23.1865" fill="white"/>
<path fill-rule="evenodd" clip-rule="evenodd" d="M104.38 0.202253C110.534 0.202253 113.865 5.43697 113.865 12.093C113.865 18.5238 110.184 23.6256 104.38 23.6256C98.3374 23.6256 95.0477 18.3909 95.0477 11.8677C95.0477 5.30408 98.3783 0.202253 104.38 0.202253ZM104.415 4.50674C101.359 4.50674 101.166 8.63212 101.166 11.2033C101.166 13.7802 101.126 19.2807 104.38 19.2807C107.594 19.2807 107.746 14.8433 107.746 12.1393C107.746 10.3597 107.67 8.23345 107.128 6.54632C106.661 5.07875 105.734 4.50674 104.415 4.50674Z" fill="white"/>
<path fill-rule="evenodd" clip-rule="evenodd" d="M121.844 23.1865H117.714C117.3 23.1576 116.968 22.8283 116.968 22.4238L116.962 1.33471C116.997 0.947594 117.341 0.647148 117.761 0.647148H121.605C121.967 0.66447 122.264 0.907151 122.346 1.23649V4.46052H122.422C123.582 1.57738 125.21 0.202253 128.074 0.202253C129.934 0.202253 131.748 0.866706 132.915 2.68672C134 4.37385 134 7.21077 134 9.25034V22.522C133.953 22.8918 133.609 23.1865 133.201 23.1865H129.042C128.663 23.1576 128.348 22.8803 128.307 22.522V11.0704C128.307 8.76501 128.575 5.39075 125.711 5.39075C124.702 5.39075 123.775 6.06098 123.314 7.07788C122.731 8.36634 122.655 9.64902 122.655 11.0704V22.4238C122.649 22.8456 122.287 23.1865 121.844 23.1865" fill="white"/>
<path fill-rule="evenodd" clip-rule="evenodd" d="M66.5888 13.1157C66.5888 14.7162 66.6296 16.0509 65.813 17.4722C65.1539 18.6278 64.1039 19.3385 62.9432 19.3385C61.3508 19.3385 60.4175 18.1367 60.4175 16.3629C60.4175 12.8615 63.5848 12.2259 66.5888 12.2259V13.1157ZM70.771 23.1287C70.4968 23.3714 70.1002 23.3887 69.7911 23.2269C68.4145 22.0945 68.1637 21.5687 67.4112 20.4882C65.1364 22.7878 63.5206 23.4754 60.575 23.4754C57.0811 23.4754 54.3688 21.3434 54.3688 17.0735C54.3688 13.7397 56.1887 11.469 58.7901 10.3597C61.0417 9.37746 64.1856 9.20413 66.5888 8.93257V8.40101C66.5888 7.42455 66.6646 6.26898 66.0813 5.42542C65.5797 4.66852 64.6114 4.35652 63.754 4.35652C62.1732 4.35652 60.7675 5.15964 60.4234 6.82365C60.3534 7.19344 60.0792 7.55744 59.7001 7.57478L55.6812 7.14721C55.3429 7.0721 54.9637 6.80054 55.0629 6.28632C55.9845 1.45605 60.3942 2.86102e-05 64.3373 2.86102e-05C66.3555 2.86102e-05 68.9919 0.531591 70.5843 2.04538C72.6025 3.91162 72.41 6.40187 72.41 9.11168V15.5135C72.41 17.4375 73.215 18.2811 73.9733 19.3211C74.2358 19.6909 74.2941 20.1358 73.9558 20.4131C73.11 21.1122 71.6051 22.4123 70.7768 23.1403L70.771 23.1287" fill="white"/>
<path fill-rule="evenodd" clip-rule="evenodd" d="M12.22 13.1159C12.22 14.7164 12.2608 16.0511 11.4442 17.4724C10.7851 18.628 9.741 19.3386 8.57441 19.3386C6.98202 19.3386 6.05459 18.1368 6.05459 16.3631C6.05459 12.8617 9.22187 12.2261 12.22 12.2261V13.1159ZM16.4022 23.1289C16.1281 23.3716 15.7314 23.3889 15.4223 23.2271C14.0457 22.0947 13.8007 21.5689 13.0424 20.4884C10.7676 22.788 9.15771 23.4756 6.20624 23.4756C2.71814 23.4756 0 21.3435 0 17.0737C0 13.7399 1.82571 11.4692 4.42136 10.3599C6.67287 9.37765 9.81683 9.20432 12.22 8.93276V8.4012C12.22 7.42474 12.2958 6.26917 11.7184 5.42561C11.2109 4.66871 10.2426 4.35671 9.39102 4.35671C7.8103 4.35671 6.39873 5.15983 6.05459 6.82384C5.98459 7.19363 5.71044 7.55763 5.33713 7.57496L1.31241 7.1474C0.974099 7.07229 0.600791 6.80073 0.694118 6.28651C1.62156 1.45624 6.02542 0.000217438 9.96848 0.000217438C11.9867 0.000217438 14.6232 0.53178 16.2156 2.04557C18.2338 3.91181 18.0413 6.40206 18.0413 9.11187V15.5137C18.0413 17.4377 18.8462 18.2813 19.6045 19.3213C19.8728 19.6911 19.9311 20.136 19.5928 20.4133C18.747 21.1124 17.2422 22.4125 16.4139 23.1405L16.4022 23.1289" fill="white"/>
</g>
<defs>
<clipPath id="clip0_13_239">
<rect width="134" height="40" fill="white"/>
</clipPath>
</defs>
</svg>
