<svg width="24" height="25" viewBox="0 0 24 25" fill="none" xmlns="http://www.w3.org/2000/svg">
<path fill-rule="evenodd" clip-rule="evenodd" d="M16.6465 10.9304C16.9469 11.2308 16.9469 11.7179 16.6465 12.0183L13.2692 15.3956C12.5682 16.0966 11.4318 16.0966 10.7308 15.3956L7.35351 12.0183C7.0531 11.7179 7.0531 11.2308 7.35351 10.9304C7.65391 10.63 8.14096 10.63 8.44137 10.9304L11.8187 14.3078C11.9188 14.4079 12.0812 14.4079 12.1813 14.3078L15.5586 10.9304C15.859 10.63 16.3461 10.63 16.6465 10.9304Z" fill="black"/>
<path fill-rule="evenodd" clip-rule="evenodd" d="M12 4.03846C9.83082 4.03846 6.86615 4.23753 5.01495 4.38095C4.40616 4.42811 3.92811 4.90616 3.88095 5.51495C3.73753 7.36615 3.53846 10.3308 3.53846 12.5C3.53846 14.6692 3.73753 17.6338 3.88095 19.485C3.92811 20.0938 4.40616 20.5719 5.01495 20.6191C6.86615 20.7625 9.83082 20.9615 12 20.9615C14.1692 20.9615 17.1338 20.7625 18.985 20.6191C19.5938 20.5719 20.0719 20.0938 20.1191 19.485C20.2625 17.6338 20.4615 14.6692 20.4615 12.5C20.4615 10.3308 20.2625 7.36615 20.1191 5.51495C20.0719 4.90616 19.5938 4.42811 18.985 4.38095C17.1338 4.23753 14.1692 4.03846 12 4.03846ZM4.89612 2.84708C6.74819 2.7036 9.76547 2.5 12 2.5C14.2345 2.5 17.2518 2.7036 19.1039 2.84708C20.4686 2.95281 21.5472 4.03141 21.6529 5.39612C21.7964 7.24819 22 10.2655 22 12.5C22 14.7345 21.7964 17.7518 21.6529 19.6039C21.5472 20.9686 20.4686 22.0472 19.1039 22.1529C17.2518 22.2964 14.2345 22.5 12 22.5C9.76547 22.5 6.74819 22.2964 4.89612 22.1529C3.53141 22.0472 2.45281 20.9686 2.34708 19.6039C2.2036 17.7518 2 14.7345 2 12.5C2 10.2655 2.2036 7.24819 2.34708 5.39612C2.45281 4.03141 3.53141 2.95281 4.89612 2.84708Z" fill="black"/>
</svg>
