<svg width="88" height="52" viewBox="0 0 88 52" fill="none" xmlns="http://www.w3.org/2000/svg">
<path d="M70.4623 37.7419H88V52H70.3585L66 47.8065V41.9355L70.4623 37.7419Z" fill="white"/>
<path d="M15.7736 11.2177L16.0849 11.1129C16.2925 11.0081 16.6038 10.7984 16.9151 10.5887C17.2264 10.379 17.5377 10.0645 17.8491 9.75C18.1604 9.43548 18.3679 9.01613 18.6792 8.3871C18.8868 7.8629 18.9906 7.23387 18.9906 6.60484C18.9906 5.03226 18.2642 3.56452 16.8113 2.41129C15.3585 1.25806 13.3868 0.629032 10.8962 0.629032H0V23.0645H11.5189C14.4245 23.0645 20.5472 22.5403 20.5472 16.6694C20.5472 12.1613 15.8774 11.2177 15.7736 11.2177ZM7.16038 5.87097H9.85849C10.3774 5.87097 10.7925 5.97581 11.2075 6.39516C11.5189 6.70968 11.7264 7.12903 11.7264 7.54839C11.7264 7.96774 11.5189 8.3871 11.2075 8.70161C10.7925 9.01613 10.3774 9.22581 9.85849 9.22581H7.16038V5.87097ZM12.1415 17.2984C11.7264 17.7177 11.2075 17.9274 10.5849 17.9274H7.16038V13.9435H10.5849C11.2075 13.9435 11.7264 14.1532 12.1415 14.5726C12.5566 14.9919 12.7642 15.4113 12.7642 16.0403C12.7642 16.4597 12.5566 16.879 12.1415 17.2984Z" fill="white"/>
<path d="M21.4811 36.0645L21.7924 35.9597C22 35.8548 22.3113 35.6452 22.6226 35.4355C22.9339 35.2258 23.2453 34.9113 23.5566 34.5968C23.8679 34.2823 24.0754 33.8629 24.3868 33.2339C24.5943 32.7097 24.6981 32.0806 24.6981 31.4516C24.6981 29.879 23.9717 28.4113 22.5188 27.2581C21.066 26.1048 19.0943 25.4758 16.6037 25.4758H5.70752V47.9113H17.1226C20.0283 47.9113 26.1509 47.3871 26.1509 41.5161C26.2547 37.0081 21.5849 36.1694 21.4811 36.0645ZM12.9717 30.7177H15.566C16.0849 30.7177 16.5 30.9274 16.9151 31.2419C17.2264 31.5565 17.4339 31.9758 17.4339 32.3952C17.4339 32.8145 17.2264 33.2339 16.9151 33.5484C16.6037 33.8629 16.1887 34.0726 15.566 34.0726H12.9717V30.7177ZM17.849 42.1452C17.4339 42.5645 16.9151 42.7742 16.2924 42.7742H12.9717V38.7903H16.2924C16.9151 38.7903 17.4339 39 17.849 39.4194C18.2641 39.8387 18.4717 40.2581 18.4717 40.8871C18.4717 41.3065 18.2641 41.7258 17.849 42.1452Z" fill="white"/>
<path d="M38.9151 17.6129H28.2264V14.1532H36.9434V9.01613H28.2264V6.08065H38.9151V0.629032H20.9623V23.0645H38.9151V17.6129Z" fill="white"/>
<path d="M57.283 0.629032V6.08065H63.1981V23.0645H70.3585V6.08065H76.1698V0.629032H57.283Z" fill="white"/>
<path d="M49.1887 17.2984C48.7736 17.6129 48.2547 17.8226 47.5283 17.8226C46.8019 17.8226 46.0755 17.6129 45.3491 17.1936C44.6227 16.7742 44.1038 16.4597 43.7925 16.25C43.6887 16.1452 43.4811 16.0403 43.3774 15.9355L39.1227 20.0242L39.434 20.3387C39.6415 20.6532 40.0566 20.9677 40.5755 21.2823C41.0943 21.7016 41.717 22.0161 42.4434 22.4355C43.1698 22.8548 44 23.1694 45.1415 23.379C46.1793 23.6936 47.3208 23.7984 48.4623 23.7984C51.2642 23.7984 53.5472 23.0645 55.2076 21.5968C56.8679 20.129 57.6981 18.3468 57.6981 16.25C57.6981 15.0968 57.4906 13.9435 56.9717 13.1048C56.4528 12.1613 55.934 11.5323 55.2076 11.0081C54.4811 10.5887 53.7547 10.1694 52.9245 9.75C52.1981 9.43548 51.4717 9.12097 50.7453 9.01613C50.6415 9.01613 50.6415 9.01613 50.5377 9.01613C49.8113 8.80645 49.1887 8.59678 48.7736 8.28226C48.2547 7.96774 48.0472 7.75807 48.0472 7.33871C48.0472 6.91936 48.2547 6.60484 48.566 6.29032C48.8774 5.97581 49.3962 5.87097 50.0189 5.87097C51.4717 5.87097 52.4057 6.5 52.8208 7.02419L57.0755 2.93548L56.9717 2.83065C56.7642 2.62097 56.4528 2.30645 56.0377 1.99194C55.6226 1.67742 55.1038 1.3629 54.4811 1.04839C53.8585 0.733871 53.1321 0.419355 52.0943 0.209677C51.0566 0.104839 50.0189 0 48.9811 0C46.283 0 44.2076 0.733871 42.5472 2.09677C40.8868 3.56452 40.0566 5.24194 40.0566 7.12903C40.0566 8.17742 40.2642 9.12097 40.5755 9.85484C40.8868 10.6935 41.4057 11.3226 41.9245 11.8468C42.4434 12.371 43.066 12.7903 43.7925 13.1048C44.4151 13.4194 44.934 13.629 45.5566 13.8387C45.6604 13.8387 45.7642 13.9435 45.8679 13.9435C46.5943 14.1532 47.217 14.3629 47.7359 14.5726C48.2547 14.7823 48.7736 14.9919 49.0849 15.2016C49.3962 15.4113 49.6038 15.7258 49.6038 15.9355C49.8113 16.5645 49.6038 16.9839 49.1887 17.2984Z" fill="white"/>
<path d="M38.9151 38.7903C38.9151 40.2581 37.7736 41.5161 36.217 41.5161C34.7642 41.5161 33.5189 40.3629 33.5189 38.7903V25.4758H26.3585V38.4758C26.3585 43.8226 30.6132 48.2258 36.0094 48.2258H36.4245C41.717 48.2258 46.0755 43.9274 46.0755 38.4758V25.4758H38.9151V38.7903Z" fill="white"/>
<path d="M58.3208 33.129L53.6509 25.4758H46.4906L54.7925 39.9435V47.9113H61.9528V39.9435L70.2547 25.4758H63.0943L58.3208 33.129Z" fill="white"/>
<path d="M69.5283 44.871C69.5283 45.3952 69.1132 45.7097 68.6981 45.7097C68.283 45.7097 67.8679 45.2903 67.8679 44.871C67.8679 44.3468 68.283 44.0323 68.6981 44.0323C69.1132 44.0323 69.5283 44.3468 69.5283 44.871Z" fill="#122028"/>
<path d="M70.4623 31.9758H69.9434V31.7661H71.1887V31.9758H70.6698V33.5484H70.4623V31.9758ZM71.5 31.7661H71.8113L72.3302 33.129L72.849 31.7661H73.1604V33.4436H72.9528V31.9758L72.3302 33.4436H72.2264L71.6038 31.9758V33.4436H71.3962V31.7661H71.5Z" fill="white"/>
</svg>
