<svg width="47" height="47" viewBox="0 0 47 47" fill="none" xmlns="http://www.w3.org/2000/svg">
<path d="M44.1367 0.666687H3.19669C2.52569 0.666687 1.88217 0.93324 1.40771 1.40771C0.93324 1.88217 0.666687 2.52569 0.666687 3.19669V44.1367C0.666687 44.8077 0.93324 45.4512 1.40771 45.9257C1.88217 46.4001 2.52569 46.6667 3.19669 46.6667H25.2307V28.8417H19.2507V21.9417H25.2307V16.7667C25.1068 15.5517 25.2502 14.3244 25.6509 13.1707C26.0516 12.0171 26.6998 10.965 27.5502 10.0884C28.4005 9.21182 29.4323 8.53186 30.5732 8.09623C31.7141 7.66061 32.9365 7.47987 34.1547 7.56669C35.9448 7.55567 37.7341 7.64782 39.5137 7.84269V14.0527H35.8567C32.9587 14.0527 32.4067 15.4327 32.4067 17.4337V21.8727H39.3067L38.4097 28.7727H32.4067V46.6667H44.1367C44.4689 46.6667 44.7979 46.6012 45.1049 46.4741C45.4118 46.347 45.6907 46.1606 45.9257 45.9257C46.1606 45.6907 46.347 45.4118 46.4741 45.1049C46.6012 44.7979 46.6667 44.4689 46.6667 44.1367V3.19669C46.6667 2.86444 46.6012 2.53545 46.4741 2.2285C46.347 1.92154 46.1606 1.64264 45.9257 1.40771C45.6907 1.17277 45.4118 0.986416 45.1049 0.859272C44.7979 0.732128 44.4689 0.666687 44.1367 0.666687V0.666687Z" fill="black"/>
</svg>
