<svg width="47" height="55" viewBox="0 0 47 55" fill="none" xmlns="http://www.w3.org/2000/svg">
<path d="M37.1 24.7667C29.6333 20.3333 17.15 19.8667 10.0333 22.0833C8.86667 22.4333 7.7 21.7333 7.35 20.6833C7 19.5167 7.7 18.35 8.75 18C17.0333 15.55 30.6833 16.0167 39.3167 21.15C40.3667 21.7333 40.7167 23.1333 40.1333 24.1833C39.55 25 38.15 25.35 37.1 24.7667ZM36.8667 31.3C36.2833 32.1167 35.2333 32.4667 34.4167 31.8833C28.1167 28.0333 18.55 26.8667 11.2 29.2C10.2667 29.4333 9.21667 28.9667 8.98333 28.0333C8.75 27.1 9.21667 26.05 10.15 25.8167C18.6667 23.25 29.1667 24.5333 36.4 28.9667C37.1 29.3167 37.45 30.4833 36.8667 31.3ZM34.0667 37.7167C33.6 38.4167 32.7833 38.65 32.0833 38.1833C26.6 34.8 19.7167 34.1 11.55 35.9667C10.7333 36.2 10.0333 35.6167 9.8 34.9167C9.56667 34.1 10.15 33.4 10.85 33.1667C19.7167 31.1833 27.4167 32 33.4833 35.7333C34.3 36.0833 34.4167 37.0167 34.0667 37.7167ZM23.3333 4C20.2692 4 17.235 4.60353 14.4041 5.77614C11.5731 6.94875 9.00088 8.66748 6.83418 10.8342C2.45833 15.21 0 21.1449 0 27.3333C0 33.5217 2.45833 39.4566 6.83418 43.8325C9.00088 45.9992 11.5731 47.7179 14.4041 48.8905C17.235 50.0631 20.2692 50.6667 23.3333 50.6667C29.5217 50.6667 35.4566 48.2083 39.8325 43.8325C44.2083 39.4566 46.6667 33.5217 46.6667 27.3333C46.6667 24.2692 46.0631 21.235 44.8905 18.4041C43.7179 15.5731 41.9992 13.0009 39.8325 10.8342C37.6658 8.66748 35.0935 6.94875 32.2626 5.77614C29.4317 4.60353 26.3975 4 23.3333 4Z" fill="black"/>
</svg>
