<svg width="134" height="40" viewBox="0 0 134 40" fill="none" xmlns="http://www.w3.org/2000/svg">
<g clip-path="url(#clip0_13_264)">
<path d="M28.7832 7.59104C28.7564 7.39496 28.5956 7.28291 28.4616 7.28291C28.3276 7.28291 25.6744 7.22689 25.6744 7.22689C25.6744 7.22689 23.45 4.98599 23.2356 4.73389C23.0212 4.5098 22.5924 4.56583 22.4316 4.62185C22.4316 4.62185 22.0028 4.76191 21.306 4.98599C21.1988 4.59384 21.0112 4.11765 20.77 3.61345C19.9928 2.04482 18.8136 1.20448 17.42 1.20448C17.3128 1.20448 17.2324 1.20448 17.1252 1.23249C17.0716 1.17647 17.0448 1.12045 16.9912 1.09244C16.3748 0.420169 15.5976 0.0840343 14.6596 0.112045C12.864 0.168068 11.0684 1.54062 9.5944 3.94958C8.576 5.65826 7.7988 7.78712 7.5576 9.43978C5.494 10.112 4.0468 10.5882 3.9932 10.5882C2.948 10.9244 2.9212 10.9524 2.7872 11.9888C2.7336 12.7731 0 34.8739 0 34.8739L22.9408 39.0196L32.8836 36.4426C32.8568 36.4426 28.81 7.78712 28.7832 7.59104ZM20.1536 5.37815C19.6176 5.54622 19.028 5.7423 18.3848 5.96639C18.3848 5.01401 18.2508 3.66947 17.8488 2.54902C19.2156 2.77311 19.8856 4.39776 20.1536 5.37815ZM17.1788 6.33053C15.9728 6.72269 14.6596 7.14286 13.3464 7.56303C13.7216 6.07843 14.4184 4.62185 15.276 3.64146C15.5976 3.27731 16.0532 2.88515 16.5624 2.66106C17.0984 3.7535 17.2056 5.29412 17.1788 6.33053ZM14.7132 1.37255C15.142 1.37255 15.4904 1.45658 15.7852 1.68067C15.3028 1.93277 14.8204 2.32493 14.3916 2.82913C13.2392 4.11765 12.3548 6.10644 12.0064 8.03922C10.9076 8.40336 9.8356 8.7395 8.8708 9.04762C9.514 5.9944 11.9528 1.45658 14.7132 1.37255Z" fill="white"/>
<path d="M28.4616 7.28291C28.3276 7.28291 25.6744 7.22689 25.6744 7.22689C25.6744 7.22689 23.45 4.98599 23.2356 4.73389C23.1552 4.64986 23.048 4.59384 22.9408 4.59384V39.0196L32.8836 36.4426C32.8836 36.4426 28.8368 7.78712 28.81 7.59104C28.7564 7.39496 28.5956 7.28291 28.4616 7.28291Z" fill="white"/>
<path d="M17.42 12.6331L16.2676 17.1429C16.2676 17.1429 14.9812 16.5266 13.4536 16.6387C11.2024 16.7787 11.2024 18.2633 11.2024 18.6275C11.3364 20.6443 16.4016 21.0924 16.6964 25.8263C16.9108 29.5518 14.8204 32.1008 11.7652 32.2969C8.1204 32.493 6.1104 30.2521 6.1104 30.2521L6.8876 26.8067C6.8876 26.8067 8.9244 28.4034 10.5324 28.2913C11.5776 28.2353 11.9796 27.3109 11.926 26.6947C11.7652 24.0616 7.638 24.2297 7.37 19.888C7.1556 16.2465 9.4336 12.577 14.472 12.2409C16.4284 12.1008 17.42 12.6331 17.42 12.6331Z" fill="black"/>
<path d="M46.3372 22.2409C45.1848 21.5966 44.5952 21.0364 44.5952 20.2801C44.5952 19.3277 45.426 18.7115 46.7124 18.7115C48.2132 18.7115 49.5532 19.3557 49.5532 19.3557L50.5984 15.9944C50.5984 15.9944 49.6336 15.2101 46.7928 15.2101C42.8264 15.2101 40.066 17.591 40.066 20.9244C40.066 22.8291 41.3524 24.2577 43.0676 25.2941C44.4612 26.1064 44.9436 26.6947 44.9436 27.563C44.9436 28.4594 44.2468 29.1877 42.9604 29.1877C41.0576 29.1877 39.2352 28.1513 39.2352 28.1513L38.1096 31.5126C38.1096 31.5126 39.7712 32.6891 42.5852 32.6891C46.6588 32.6891 49.6068 30.5882 49.6068 26.8067C49.58 24.7619 48.106 23.3053 46.3372 22.2409Z" fill="white"/>
<path d="M62.578 15.1541C60.568 15.1541 58.9868 16.1625 57.7808 17.6751L57.7272 17.6471L59.4692 8.12325H54.94L50.518 32.381H55.0472L56.548 24.0896C57.1376 20.9524 58.692 19.0196 60.1392 19.0196C61.1576 19.0196 61.5596 19.7479 61.5596 20.7843C61.5596 21.4286 61.506 22.2409 61.372 22.8852L59.6568 32.381H64.186L65.9548 22.577C66.1424 21.5406 66.2764 20.3081 66.2764 19.4678C66.3032 16.7787 64.9632 15.1541 62.578 15.1541Z" fill="white"/>
<path d="M76.5676 15.1541C71.1004 15.1541 67.4824 20.3081 67.4824 26.0504C67.4824 29.7199 69.6532 32.6891 73.7268 32.6891C79.0868 32.6891 82.7048 27.6751 82.7048 21.7927C82.7316 18.4034 80.8288 15.1541 76.5676 15.1541ZM74.3432 29.0756C72.7888 29.0756 72.1456 27.7031 72.1456 25.9664C72.1456 23.2493 73.4856 18.8235 75.9512 18.8235C77.5592 18.8235 78.0952 20.2801 78.0952 21.6807C78.0952 24.5938 76.7284 29.0756 74.3432 29.0756Z" fill="white"/>
<path d="M94.336 15.1541C91.2808 15.1541 89.5388 17.9832 89.5388 17.9832H89.4852L89.7532 15.4342H85.7332C85.5456 17.1429 85.1704 19.7759 84.822 21.7367L81.6596 39.1036H86.1888L87.4484 32.0728H87.5556C87.5556 32.0728 88.4936 32.6891 90.2088 32.6891C95.542 32.6891 99.026 26.9748 99.026 21.2045C99.026 18.0112 97.6592 15.1541 94.336 15.1541ZM89.9944 29.1317C88.8152 29.1317 88.1184 28.4314 88.1184 28.4314L88.8688 24.0056C89.4048 21.0364 90.8788 19.0756 92.46 19.0756C93.8536 19.0756 94.2824 20.4202 94.2824 21.6807C94.2824 24.7619 92.5404 29.1317 89.9944 29.1317Z" fill="white"/>
<path d="M105.512 8.34734C104.064 8.34734 102.912 9.55182 102.912 11.0924C102.912 12.493 103.77 13.4734 105.056 13.4734H105.11C106.53 13.4734 107.736 12.465 107.763 10.7283C107.763 9.35574 106.878 8.34734 105.512 8.34734Z" fill="white"/>
<path d="M99.16 32.3529H103.689L106.771 15.5462H102.215L99.16 32.3529Z" fill="white"/>
<path d="M118.322 15.5182H115.16L115.32 14.7339C115.588 13.1092 116.5 11.6807 118.027 11.6807C118.831 11.6807 119.474 11.9328 119.474 11.9328L120.359 8.20728C120.359 8.20728 119.582 7.78712 117.893 7.78712C116.285 7.78712 114.677 8.26331 113.444 9.35574C111.89 10.7283 111.166 12.7171 110.818 14.7339L110.684 15.5182H108.567L107.897 19.1036H110.014L107.602 32.381H112.131L114.543 19.1036H117.679L118.322 15.5182Z" fill="white"/>
<path d="M129.256 15.5462C129.256 15.5462 126.416 23.0252 125.156 27.1148H125.102C125.022 25.7983 123.977 15.5462 123.977 15.5462H119.206L121.94 30.9804C121.994 31.3165 121.967 31.5406 121.833 31.7647C121.297 32.8291 120.412 33.8655 119.367 34.6218C118.51 35.2661 117.545 35.6863 116.794 35.9664L118.054 40C118.965 39.8039 120.895 38.9916 122.503 37.423C124.566 35.4062 126.496 32.2689 128.452 28.0112L134 15.5462H129.256Z" fill="white"/>
<path d="M23.05 4.5L23.05 39" stroke="black" stroke-width="0.1"/>
</g>
<defs>
<clipPath id="clip0_13_264">
<rect width="134" height="40" fill="white"/>
</clipPath>
</defs>
</svg>
