<svg width="72" height="65" viewBox="0 0 72 65" fill="none" xmlns="http://www.w3.org/2000/svg">
<path d="M33.263 0.904095C33.3548 2.22373 33.3344 3.55299 33.2018 4.86299C33.1814 5.02674 33.1712 5.1905 33.1406 5.34461C33.1304 5.42167 33.1202 5.49873 33.11 5.57579C33.0998 5.69138 33.1406 5.39278 33.11 5.56616C33.0998 5.61432 33.0998 5.67212 33.0896 5.72028C33.0386 6.04778 32.9774 6.37527 32.9162 6.70277C32.7836 7.35777 32.6102 8.01278 32.4062 8.64852C32.3042 8.94712 32.2022 9.24572 32.09 9.54432C32.0288 9.68881 31.9778 9.83329 31.9064 9.97778C31.8962 10.0067 31.8554 10.0548 31.8554 10.0934C31.8554 9.99705 31.9166 9.96815 31.8758 10.0356C31.8351 10.1126 31.8044 10.1897 31.7636 10.2667C31.5189 10.7773 31.2231 11.2685 30.8967 11.7309C30.8253 11.8368 30.7437 11.9428 30.6621 12.0487C30.6213 12.1065 30.5703 12.1643 30.5295 12.2221C30.5091 12.2414 30.4887 12.2703 30.4785 12.2895C30.5805 12.1162 30.5193 12.2414 30.4887 12.2799C30.3051 12.5015 30.1012 12.723 29.8972 12.9349C29.6932 13.1372 29.4892 13.3298 29.2648 13.5225C29.1628 13.6092 29.0507 13.6959 28.9385 13.7826C28.8875 13.8211 28.8365 13.8596 28.7855 13.8982C28.7039 13.956 28.9384 13.7826 28.8161 13.8789C28.7753 13.9078 28.7446 13.9271 28.7039 13.9559C28.4387 14.139 28.1633 14.3124 27.8777 14.4665C27.5921 14.6206 27.2964 14.7362 27.0006 14.8807C27.0108 14.871 27.1739 14.8132 27.0618 14.8518C27.021 14.871 26.9802 14.8807 26.9394 14.8999C26.8578 14.9288 26.7762 14.9577 26.6844 14.9866C26.5314 15.0348 26.3784 15.0829 26.2152 15.1215C25.8991 15.2082 25.5727 15.266 25.2463 15.3045C25.0729 15.3237 24.8689 15.4971 24.7873 15.632C24.7057 15.7765 24.6751 15.9306 24.6955 16.0943C24.7465 16.4411 25.0627 16.7204 25.4503 16.7204C26.1948 16.7108 26.9394 16.7108 27.6839 16.759C27.8573 16.7686 28.0205 16.7879 28.1939 16.8071C28.2041 16.8071 28.3877 16.836 28.2653 16.8168C28.1327 16.7975 28.3163 16.8264 28.3367 16.8264C28.4285 16.836 28.5203 16.8553 28.6121 16.8746C28.9792 16.942 29.3362 17.0287 29.683 17.1346C29.7442 17.1539 29.8156 17.1828 29.8768 17.2021C29.9074 17.2117 29.9482 17.231 29.9788 17.2406C30.04 17.2598 30.1012 17.3176 29.938 17.2213C30.0604 17.2984 30.2134 17.3369 30.346 17.4043C30.6009 17.5296 30.8457 17.6644 31.0701 17.8185C31.1313 17.8571 31.1925 17.8956 31.2537 17.9438C31.2741 17.963 31.3047 17.9823 31.3251 17.9919C31.4271 18.0593 31.2843 17.963 31.2741 17.9534C31.3761 18.0497 31.5087 18.1364 31.6209 18.2231C31.8453 18.4157 32.0594 18.6084 32.2634 18.8203C32.3552 18.9166 32.447 19.0129 32.5286 19.1093C32.5694 19.1574 32.6102 19.2056 32.6612 19.2634C32.7224 19.3404 32.549 19.1189 32.6408 19.2345C32.6714 19.273 32.6918 19.3019 32.7224 19.3404C32.8958 19.562 33.0488 19.7932 33.2018 20.0243C33.3547 20.2651 33.4976 20.5156 33.6301 20.766C33.6913 20.8912 33.7525 21.0165 33.8137 21.1417C33.8239 21.1706 33.8341 21.1995 33.8545 21.2188C33.7729 21.0357 33.8239 21.1417 33.8443 21.1899C33.8749 21.2669 33.9055 21.3343 33.9361 21.4114C34.1707 21.9893 34.3441 22.5769 34.4767 23.1741C34.5175 23.3475 34.5481 23.5113 34.5787 23.6846C34.5889 23.7521 34.5991 23.8291 34.6195 23.8965C34.6297 23.9543 34.6399 24.0025 34.6399 24.0603C34.6399 24.0314 34.6297 24.0025 34.6297 23.9736C34.6297 24.0121 34.6399 24.041 34.6399 24.0796C34.6807 24.4263 34.7215 24.7635 34.7419 25.1102C34.8541 26.6996 34.7521 28.2985 34.6399 29.8783C34.6195 30.2346 34.9459 30.5429 35.3028 30.591C35.6802 30.6392 36.0269 30.4177 36.1391 30.0709C36.9449 27.6532 37.0469 25.1006 37.6487 22.6443C37.7813 22.0953 37.9342 21.5462 38.1382 21.0068C38.179 20.8912 38.23 20.7757 38.2708 20.6697C38.2912 20.6119 38.332 20.5541 38.3524 20.4867C38.3524 20.4963 38.281 20.6504 38.332 20.5445C38.3422 20.5156 38.3626 20.4771 38.3728 20.4482C38.485 20.217 38.5972 19.9954 38.7196 19.7739C38.9644 19.3308 39.2499 18.907 39.5661 18.5121C39.5865 18.4928 39.6069 18.4639 39.6171 18.4446C39.5151 18.5891 39.5457 18.5313 39.5763 18.4928C39.6171 18.4446 39.6579 18.3965 39.6987 18.3483C39.7803 18.252 39.8721 18.1557 39.9639 18.0593C40.1373 17.8763 40.3209 17.7029 40.5045 17.5488C40.6167 17.4525 40.7186 17.3658 40.841 17.2791C40.8614 17.2598 40.8819 17.2502 40.9124 17.231C40.7289 17.3658 40.8614 17.2695 40.892 17.2406C40.9532 17.2021 41.0042 17.1635 41.0654 17.125C41.2898 16.9805 41.5244 16.8457 41.7692 16.7301C41.8304 16.7012 41.9018 16.6723 41.963 16.6434C41.9936 16.6337 42.014 16.6241 42.0446 16.6145C42.1874 16.5567 41.8916 16.6723 42.0242 16.6241C42.1568 16.5759 42.2893 16.5278 42.4321 16.4893C42.5749 16.4507 42.7075 16.4122 42.8503 16.3833C42.9115 16.3737 42.9829 16.3544 43.0441 16.3448C43.1053 16.3351 43.3909 16.2966 43.1257 16.3255C43.3297 16.2966 43.5235 16.2677 43.6663 16.1136C43.7785 15.998 43.8499 15.8632 43.8805 15.6994C43.9315 15.3719 43.707 14.977 43.3297 14.9096C43.0339 14.8518 42.7381 14.7843 42.4423 14.6976C42.3098 14.6591 42.1873 14.611 42.0547 14.5724C41.9833 14.5435 41.912 14.5146 41.8406 14.4954C42.0752 14.5821 41.81 14.4761 41.7488 14.4568C41.2082 14.216 40.6881 13.927 40.2087 13.5899C40.1883 13.5707 40.1577 13.5514 40.1373 13.5418C40.0353 13.4647 40.1781 13.5707 40.1883 13.5803C40.1373 13.5321 40.0659 13.4936 40.0047 13.4454C39.8823 13.3491 39.7701 13.2624 39.6579 13.1661C39.4335 12.9735 39.2091 12.7712 39.0052 12.5496C38.8012 12.3377 38.6074 12.1258 38.4136 11.9043C38.3932 11.8754 38.3728 11.8465 38.3422 11.8176C38.3524 11.8272 38.4544 11.9524 38.3728 11.8561C38.3218 11.7983 38.281 11.7405 38.23 11.6827C38.1382 11.5671 38.0465 11.4419 37.9649 11.3263C37.6283 10.8543 37.3325 10.3534 37.0673 9.84293C37.0061 9.71771 36.9449 9.60212 36.8837 9.4769C36.8633 9.448 36.8531 9.40947 36.8429 9.38058C36.7919 9.27462 36.8633 9.41911 36.8633 9.42874C36.8327 9.34205 36.7919 9.26499 36.7613 9.18793C36.6491 8.92785 36.5471 8.65814 36.4451 8.38844C36.0167 7.20366 35.7006 5.98035 35.4456 4.74741C35.3028 4.06351 35.1702 3.36998 35.0581 2.67645C35.0071 2.34895 34.9561 2.03109 34.9051 1.70359C34.8847 1.53984 34.854 1.38572 34.8336 1.22197C34.8235 1.16417 34.7826 0.894465 34.8234 1.13527C34.8132 1.04858 34.8031 0.971526 34.7929 0.884835C34.7623 0.682555 34.7214 0.5188 34.5685 0.374315C34.4359 0.249094 34.2217 0.152775 34.0279 0.162407C33.8341 0.17204 33.6199 0.229829 33.4873 0.374315C33.3547 0.528433 33.2324 0.72108 33.263 0.904095C33.6199 3.43741 34.0279 5.99961 34.8541 8.4366C35.6496 10.758 36.9449 12.9734 38.9746 14.5243C40.1271 15.4008 41.453 16.0751 42.9115 16.3351C42.9829 15.8632 43.0441 15.3912 43.1155 14.9192C42.4832 14.9962 41.9018 15.1504 41.3102 15.3912C40.79 15.6031 40.3107 15.8921 39.8619 16.2292C38.9847 16.8746 38.2606 17.7126 37.6895 18.6084C37.0877 19.5427 36.6491 20.5734 36.3533 21.6329C35.9964 22.8851 35.7924 24.1759 35.5884 25.457C35.364 26.9018 35.1294 28.3467 34.6602 29.7434C35.16 29.8108 35.6598 29.8686 36.1596 29.936C36.3533 27.0849 36.5267 24.0988 35.5068 21.3536C34.6603 19.0611 32.9978 16.9131 30.5805 15.9498C28.9588 15.3045 27.1842 15.2852 25.4503 15.3045C25.5217 15.7765 25.5829 16.2484 25.6543 16.7204C28.2245 16.3833 30.4173 14.8132 31.9166 12.8868C33.5791 10.7484 34.3033 8.06095 34.6501 5.46021C34.8541 3.94793 34.8948 2.42601 34.7827 0.913725C34.7521 0.538063 34.4461 0.172033 34.0177 0.191297C33.6301 0.20093 33.2324 0.499535 33.263 0.904095Z" fill="#231F20"/>
<path d="M4.93934 20.4867C5.11273 21.2091 5.26572 21.9412 5.39831 22.6732C5.4697 23.0296 5.53093 23.386 5.58193 23.7424C5.61252 23.9254 5.6431 24.0988 5.6635 24.2818C5.6737 24.3589 5.68388 24.4456 5.69408 24.5226C5.71448 24.6575 5.69408 24.5323 5.69408 24.513C5.70428 24.5708 5.7145 24.6286 5.7145 24.696C5.91848 26.1505 6.04086 27.605 6.10205 29.0691C6.13265 29.6952 6.13269 30.3117 6.09189 30.9378C6.08169 31.0823 6.07145 31.2268 6.05105 31.3712C6.04086 31.4483 6.03068 31.5254 6.02048 31.6024C6.01028 31.6795 6.04088 31.7373 6.02048 31.5832C6.03068 31.6313 6.00006 31.6891 6.00006 31.7373C5.94906 32.0359 5.88787 32.3248 5.79607 32.6138C5.75527 32.7583 5.70429 32.8932 5.65329 33.0376C5.63289 33.0954 5.59213 33.1629 5.58193 33.2207C5.62272 33.0762 5.62269 33.1436 5.60229 33.1821C5.5819 33.2303 5.56149 33.2688 5.54109 33.317C5.3983 33.5963 5.23512 33.8564 5.04133 34.1068C4.99034 34.1646 4.94955 34.2321 4.89855 34.2898C4.90875 34.2706 5.00057 34.1646 4.91897 34.261C4.89857 34.2899 4.87815 34.3187 4.84756 34.338C4.74556 34.4632 4.63335 34.5885 4.52116 34.7137C4.30697 34.9448 4.07242 35.176 3.83783 35.3976C3.58285 35.6384 3.31764 35.8599 3.04226 36.0815C2.89947 36.1971 2.7567 36.3126 2.60371 36.4186C2.57311 36.4475 2.53231 36.4764 2.50171 36.4957C2.48132 36.5053 2.35892 36.6016 2.45072 36.5342C2.55271 36.4668 2.40992 36.5631 2.39972 36.5727C2.35892 36.6016 2.30795 36.6305 2.26715 36.669C1.65519 37.0929 1.02283 37.4878 0.380278 37.8635C0.104897 38.0272 -0.0787307 38.374 0.0334617 38.6822C0.135455 38.9712 0.431255 39.2312 0.767832 39.212C1.41039 39.1735 2.05294 39.1446 2.7057 39.1735C3.13407 39.1927 3.56244 39.2313 3.98061 39.2794C4.2152 39.2987 4.43956 39.3179 4.67415 39.3372C4.74554 39.3372 4.81695 39.3468 4.88834 39.3565C4.90874 39.3565 4.91894 39.3565 4.93934 39.3661C5.02093 39.3757 5.00053 39.3757 4.87813 39.3565C4.89853 39.3661 4.94957 39.3661 4.96997 39.3661C5.13316 39.395 5.29633 39.4239 5.45951 39.4721C5.6023 39.5106 5.74511 39.5588 5.8777 39.6069C5.91849 39.6166 5.9491 39.6358 5.9899 39.6454C6.09189 39.684 5.80628 39.5684 5.95927 39.6358C6.04087 39.6743 6.11229 39.7032 6.19388 39.7418C6.47947 39.8766 6.74464 40.0307 6.99962 40.2041C7.03022 40.2234 7.06081 40.2523 7.0914 40.2715C7.2036 40.3486 7.06082 40.2523 7.05062 40.2427C7.08121 40.2908 7.19339 40.3486 7.23418 40.3871C7.36678 40.4931 7.48919 40.599 7.61158 40.705C7.84616 40.9169 8.08076 41.1481 8.28474 41.3793C8.38674 41.4949 8.48872 41.6104 8.58051 41.726C8.69271 41.8609 8.47852 41.5912 8.58051 41.726C8.60091 41.7549 8.62132 41.7742 8.64172 41.8031C8.70292 41.8801 8.76408 41.9572 8.81508 42.0343C9.00886 42.2943 9.19244 42.5544 9.36583 42.8241C9.74321 43.4117 10.09 44.0282 10.4062 44.6446C10.5796 44.9818 10.753 45.3285 10.9161 45.6657C10.9569 45.7427 10.9876 45.8198 11.0283 45.8968C11.0487 45.9354 11.0692 45.9835 11.0896 46.0221C11.1405 46.1473 11.0895 46.0317 11.0793 46.0028C11.1711 46.1954 11.2425 46.3881 11.3241 46.5807C11.9871 48.1604 12.497 49.7883 12.854 51.4547C12.9254 51.8111 13.3436 52.0134 13.6904 51.9749C14.0983 51.9267 14.3125 51.6281 14.3533 51.2621C14.7103 48.3627 13.9351 45.4827 14.1187 42.5737C14.1289 42.3425 14.1595 42.1113 14.1799 41.8898C14.1901 41.832 14.2003 41.7742 14.2003 41.7164C14.2105 41.6201 14.1697 41.9187 14.1901 41.7742C14.1901 41.7453 14.2003 41.726 14.2003 41.6971C14.2207 41.5719 14.2411 41.4467 14.2615 41.3215C14.3533 40.8302 14.4757 40.339 14.6185 39.867C14.7001 39.6165 14.7817 39.3661 14.8735 39.1157C14.9143 39.0001 14.9551 38.8941 15.0061 38.7882C15.0265 38.7304 15.057 38.6726 15.0774 38.6148C15.1284 38.5088 15.0571 38.6629 15.0469 38.6726C15.0673 38.634 15.0775 38.5955 15.0979 38.557C15.312 38.1043 15.5568 37.6612 15.8526 37.247C15.924 37.141 16.0056 37.0351 16.0872 36.9291C16.0974 36.9099 16.1892 36.8039 16.0974 36.9099C16.0158 37.0158 16.1076 36.9002 16.128 36.881C16.1688 36.8328 16.2096 36.7846 16.2606 36.7365C16.434 36.5438 16.6278 36.3608 16.8317 36.1971C16.8827 36.1489 16.9439 36.1104 16.9949 36.0718C17.0663 36.014 16.8521 36.1682 16.9337 36.12C16.9643 36.1007 16.9949 36.0815 17.0255 36.0526C17.1377 35.9851 17.2397 35.9177 17.3621 35.8503C17.4743 35.7925 17.5865 35.7347 17.6987 35.6865C17.7191 35.6769 17.8415 35.6287 17.7089 35.6769C17.5865 35.7251 17.6885 35.6865 17.7191 35.6769C17.7905 35.648 17.8619 35.6288 17.9333 35.6095C18.2392 35.5132 18.5146 35.2338 18.4942 34.9159C18.4738 34.5884 18.2698 34.3284 17.9333 34.2224C16.6277 33.8082 15.2611 33.6348 13.9454 33.2399C13.7924 33.1918 13.6394 33.1436 13.4864 33.0858C13.4558 33.0762 13.4252 33.0665 13.3946 33.0569C13.3742 33.0473 13.2416 32.9798 13.3538 33.0376C13.466 33.0954 13.3334 33.028 13.313 33.0184C13.2722 32.9991 13.2212 32.9799 13.1804 32.9606C12.8846 32.8354 12.6092 32.6812 12.344 32.5079C12.3033 32.479 12.2624 32.4501 12.2216 32.4308C12.1298 32.373 12.2421 32.4597 12.2625 32.4597C12.2319 32.4693 12.0992 32.3345 12.0686 32.3056C11.9361 32.19 11.8035 32.0744 11.6811 31.9492C11.5791 31.8432 11.4771 31.7276 11.3751 31.6121C11.3241 31.5543 11.2731 31.4965 11.2221 31.4387C11.3547 31.5832 11.2731 31.4965 11.2425 31.4579C11.2119 31.4194 11.1813 31.3712 11.1405 31.3327C10.7734 30.8607 10.4674 30.3598 10.192 29.8397C10.1206 29.7048 10.0594 29.5796 9.99821 29.4448C9.96761 29.387 9.93703 29.3292 9.91663 29.2618C9.89623 29.2329 9.88603 29.1943 9.86564 29.1654C9.80444 29.0306 9.92683 29.3003 9.86564 29.1751C9.74325 28.8957 9.63101 28.6067 9.51882 28.3274C9.05985 27.133 8.70289 25.9001 8.30511 24.6864C7.75435 23.0489 7.1118 21.4403 6.27546 19.9184C6.09187 19.5812 5.56153 19.456 5.22495 19.6583C4.85778 19.8798 4.75576 20.2844 4.94955 20.6504C5.15354 21.0165 5.34734 21.3921 5.53093 21.7678C5.61252 21.9412 5.70431 22.1145 5.7757 22.2879C5.7655 22.2687 5.7145 22.1434 5.76549 22.2687C5.78589 22.3072 5.8063 22.3553 5.8267 22.3939C5.8675 22.4902 5.90826 22.5865 5.94906 22.6732C6.23464 23.3475 6.48963 24.0314 6.72422 24.7249C7.15259 25.9675 7.51978 27.2293 7.96855 28.4623C8.39693 29.6374 8.9171 30.8029 9.66165 31.8336C10.0594 32.3826 10.5082 32.9413 11.0589 33.3651C11.6505 33.8371 12.3033 34.1743 13.0274 34.4343C14.4757 34.9641 16.0464 35.1182 17.5151 35.5806C17.5151 35.1182 17.5151 34.6559 17.5151 34.1839C15.2917 34.8582 14.0167 36.9484 13.313 38.9134C12.9458 39.9248 12.7214 40.9843 12.6092 42.0439C12.4665 43.4117 12.5684 44.7988 12.6908 46.1666C12.8336 47.8522 13.007 49.5379 12.803 51.2235C13.3028 51.1561 13.8026 51.0983 14.3023 51.0309C13.976 49.5186 13.517 48.0256 12.9458 46.5807C12.3644 45.1263 11.6811 43.691 10.8549 42.3425C10.1512 41.2059 9.30466 40.0982 8.22354 39.2601C7.63198 38.8074 7.01999 38.4414 6.30604 38.1813C5.67368 37.9405 5.01075 37.8731 4.33759 37.8153C3.84802 37.7768 3.36868 37.719 2.87911 37.6901C2.15496 37.6515 1.44099 37.6804 0.716835 37.719C0.849426 38.1717 0.971798 38.6148 1.10439 39.0675C2.30791 38.3643 3.48084 37.5938 4.53137 36.6787C5.5717 35.7636 6.54066 34.7137 7.06083 33.4518C7.56059 32.2382 7.64218 30.88 7.61158 29.5796C7.58098 28.1059 7.45856 26.6321 7.27497 25.1776C7.06079 23.4631 6.75481 21.7485 6.35703 20.0628C6.26524 19.6968 5.7961 19.4464 5.41873 19.562C5.06175 19.7257 4.83735 20.0917 4.93934 20.4867Z" fill="#231F20"/>
<path d="M45.0635 39.8862C45.2063 40.416 45.3185 40.9458 45.4001 41.4949C45.3899 41.4274 45.3797 41.3696 45.3695 41.3022C45.5224 42.3714 45.5429 43.4695 45.3899 44.5387C45.4001 44.4713 45.4103 44.4135 45.4205 44.346C45.2981 45.2129 45.0635 46.0606 44.7065 46.8601C44.7371 46.8023 44.7575 46.7445 44.7881 46.6867C44.6147 47.072 44.421 47.4477 44.1864 47.8041C44.0742 47.9871 43.9416 48.1701 43.809 48.3435C43.7478 48.4205 43.6866 48.4976 43.6254 48.5746C43.7886 48.3724 43.656 48.5361 43.6152 48.5843C43.5744 48.6324 43.5336 48.6806 43.4928 48.7191C43.2072 49.0466 42.8809 49.3452 42.5443 49.6246C42.4627 49.692 42.3709 49.7594 42.2893 49.8269C42.2383 49.8654 42.0649 49.9906 42.2791 49.8365C42.2281 49.8654 42.1873 49.9039 42.1363 49.9424C41.9425 50.0773 41.7385 50.2025 41.5346 50.3277C41.147 50.5493 40.7594 50.7419 40.3412 50.9057C40.4024 50.8768 40.4636 50.8575 40.5248 50.8286C40.229 50.9442 39.9333 51.0598 39.6375 51.185C39.4335 51.2717 39.2397 51.3488 39.0867 51.4932C38.7399 51.8015 38.8011 52.3313 39.1581 52.5913C39.3417 52.7262 39.5865 52.7647 39.8007 52.8225C40.1679 52.9285 40.535 53.0537 40.892 53.1982C40.8308 53.1693 40.7696 53.15 40.7084 53.1211C41.6773 53.516 42.6157 54.0073 43.452 54.6045C43.4724 54.6238 43.4928 54.6334 43.5132 54.6527C43.3398 54.5274 43.4112 54.5852 43.452 54.6045C43.503 54.643 43.5438 54.6719 43.5948 54.7105C43.6866 54.7779 43.7784 54.8549 43.86 54.9224C44.013 55.0572 44.166 55.1921 44.3087 55.3462C44.3801 55.4136 44.4413 55.4907 44.5127 55.5677C44.5433 55.6063 44.5739 55.6448 44.6045 55.6833C44.6351 55.7218 44.6861 55.7893 44.5434 55.6159C44.5638 55.6448 44.5841 55.6641 44.6045 55.693C44.7269 55.8471 44.8493 56.0108 44.9513 56.1842C45.2165 56.5791 45.4307 57.003 45.6347 57.4364C45.6041 57.3786 45.5837 57.3208 45.5531 57.263C46.2874 58.9198 46.624 60.7018 46.9504 62.4645C47.0319 62.9365 47.1238 63.4085 47.2155 63.8805C47.2461 64.0442 47.4195 64.2369 47.5623 64.3139C47.7153 64.391 47.8785 64.4199 48.0519 64.4006C48.4293 64.3524 48.7047 64.0539 48.7149 63.6878C48.7455 62.8883 48.776 62.0889 48.8066 61.2797C48.8372 60.5091 48.8372 59.7289 48.9494 58.9583C48.9392 59.0258 48.929 59.0835 48.9188 59.151C49.0208 58.4863 49.1738 57.8217 49.3574 57.1763C49.4492 56.8585 49.5512 56.5406 49.6532 56.2227C49.745 55.9627 49.8266 55.693 49.9388 55.4329C49.9082 55.4907 49.8878 55.5485 49.8572 55.6063C49.9999 55.298 50.1836 55.0091 50.3977 54.7394C50.4283 54.7008 50.4589 54.6623 50.4895 54.6141C50.5609 54.5274 50.3569 54.7683 50.4691 54.6334C50.5405 54.5467 50.6119 54.4696 50.6833 54.383C50.8159 54.2288 50.9587 54.0844 51.1015 53.9399C51.4075 53.6413 51.7338 53.3523 52.0704 53.073C52.152 53.0055 52.2336 52.9477 52.3152 52.8803C52.356 52.8514 52.3968 52.8225 52.4376 52.784C52.458 52.7647 52.4784 52.7455 52.509 52.7358C52.4784 52.7551 52.356 52.8514 52.4478 52.7744C52.611 52.6588 52.7844 52.5432 52.9476 52.4276C53.2842 52.2157 53.6309 52.0134 54.0083 51.8689C53.9471 51.8978 53.8859 51.9171 53.8247 51.946C53.8553 51.9363 53.8859 51.9267 53.9165 51.9074C54.1001 51.84 54.2735 51.7437 54.3755 51.5799C54.4571 51.4355 54.4877 51.2813 54.4673 51.1176C54.4163 50.7612 54.1001 50.4915 53.7125 50.4915C53.5391 50.4915 53.3657 50.4818 53.2026 50.4626C53.274 50.4722 53.3352 50.4819 53.4065 50.4915C53.07 50.4433 52.7334 50.3566 52.4172 50.2314C52.4784 50.2603 52.5396 50.2796 52.6008 50.3085C52.407 50.2314 52.2234 50.1447 52.05 50.0388C51.9582 49.9906 51.8767 49.9328 51.7849 49.8846C51.7441 49.8557 51.693 49.8268 51.6522 49.7979C51.6318 49.7883 51.6114 49.769 51.591 49.7594C51.5808 49.7498 51.5707 49.7402 51.5605 49.7402C51.4891 49.6824 51.6624 49.8172 51.6522 49.8076C51.3055 49.5379 50.9791 49.2489 50.6731 48.931C50.6017 48.8443 50.5201 48.7673 50.4487 48.6806C50.4181 48.6421 50.3774 48.5939 50.3468 48.5554C50.2652 48.459 50.4283 48.6517 50.3977 48.6132C50.3774 48.5843 50.3569 48.565 50.3365 48.5361C50.1836 48.3531 50.0509 48.1604 49.9082 47.9678C49.6226 47.5632 49.3676 47.1394 49.133 46.706C48.8577 46.2051 48.6027 45.6849 48.3681 45.1648C48.3987 45.2226 48.4191 45.2804 48.4497 45.3382C47.7663 43.8066 47.2359 42.2076 46.7974 40.5894C46.6954 40.2137 46.6036 39.8477 46.5118 39.4721C46.42 39.106 45.9508 38.8556 45.5734 38.9712C45.1859 39.1253 44.9615 39.4913 45.0635 39.8862C45.2777 40.7628 45.5123 41.6393 45.7876 42.5063C46.1038 43.5177 46.471 44.529 46.8892 45.5115C47.338 46.5422 47.8377 47.5632 48.4701 48.5072C49.0311 49.3549 49.7042 50.1832 50.5303 50.8093C50.9281 51.108 51.3463 51.3873 51.8154 51.5799C52.3356 51.7918 52.8456 51.9267 53.4168 51.9749C53.5289 51.9845 53.6411 51.9845 53.7431 51.9845C53.6717 51.5125 53.6105 51.0405 53.5391 50.5685C52.7028 50.8768 51.9786 51.3584 51.2851 51.8882C50.5915 52.418 49.9388 53.0152 49.388 53.6798C49.1126 54.0073 48.8576 54.3348 48.6537 54.7105C48.4191 55.1535 48.2661 55.6352 48.1131 56.1071C47.7459 57.2534 47.4501 58.4189 47.3583 59.6133C47.3073 60.2876 47.2971 60.9715 47.2768 61.6458C47.2564 62.3393 47.2257 63.0232 47.2053 63.7167C47.7051 63.6493 48.2049 63.5915 48.7047 63.5241C48.3375 61.6072 48.0621 59.6615 47.4093 57.8121C47.0727 56.8777 46.6546 55.9434 46.0426 55.1343C45.7366 54.7201 45.3899 54.3348 45.0023 53.988C44.5536 53.6027 44.0538 53.256 43.5438 52.9477C42.9828 52.601 42.3913 52.2927 41.7793 52.0327C41.4326 51.8785 41.0756 51.7437 40.7084 51.6185C40.4126 51.5221 40.1168 51.4451 39.821 51.3584C39.8822 51.3873 39.9435 51.4066 40.0047 51.4355C40.0965 51.5221 40.178 51.5992 40.2698 51.6859C40.3004 51.7437 40.3208 51.8015 40.3514 51.8593C40.3616 51.9267 40.3718 51.9845 40.382 52.0519C40.3718 52.1194 40.3616 52.1771 40.3514 52.2446C40.3208 52.3024 40.3004 52.3602 40.2698 52.418C40.2086 52.5047 40.127 52.6106 40.0352 52.6491C40.0556 52.6395 40.0658 52.6299 40.0862 52.6202C40.1372 52.5913 40.1882 52.5721 40.2392 52.5432C40.382 52.4757 40.535 52.4179 40.688 52.3602C40.6268 52.3891 40.5656 52.4083 40.5044 52.4372C40.9226 52.2735 41.3509 52.1097 41.7589 51.9074C42.2281 51.6763 42.6667 51.4066 43.0848 51.1079C43.9722 50.4626 44.7371 49.7016 45.3389 48.8155C46.5016 47.1298 47.0116 45.0877 47.0218 43.0938C47.0218 41.8994 46.8484 40.6954 46.5424 39.5395C46.4404 39.1735 45.9916 38.9134 45.6041 39.0386C45.1961 39.1253 44.9513 39.4913 45.0635 39.8862Z" fill="#231F20"/>
<path d="M55.3956 14.3316C55.4772 14.688 55.5486 15.0444 55.6098 15.4008C55.6404 15.5742 55.671 15.7572 55.7016 15.9402C55.7118 15.998 55.7627 16.2677 55.7219 16.0558C55.7423 16.1618 55.7526 16.2677 55.7628 16.3641C55.8546 17.0961 55.926 17.8378 55.9668 18.5795C56.0484 20.0725 56.0381 21.5752 55.9259 23.0586C55.8953 23.4246 55.8647 23.7906 55.8342 24.1663C55.8138 24.33 55.8036 24.5034 55.7832 24.6672C55.773 24.7442 55.7628 24.8213 55.7526 24.908C55.7526 24.9465 55.7424 24.985 55.7424 25.0139C55.7322 25.0717 55.7424 25.0428 55.7526 24.9272C55.7526 24.9561 55.7424 24.985 55.7424 25.0139C55.6506 25.6304 55.5078 26.2372 55.3344 26.8344C55.2426 27.133 55.1406 27.4316 55.0284 27.7206C54.9672 27.8651 54.9162 28.0096 54.855 28.1541C54.8448 28.1926 54.8244 28.2215 54.8142 28.26C54.8754 28.077 54.8448 28.183 54.8244 28.2311C54.7836 28.3082 54.753 28.3949 54.7122 28.4719C54.4368 29.0402 54.1207 29.5797 53.7433 30.0998C53.6413 30.2443 53.5291 30.3888 53.4169 30.5236C53.3863 30.5622 53.3251 30.6103 53.4475 30.4851C53.4169 30.5236 53.3761 30.5622 53.3455 30.6007C53.2843 30.6681 53.2333 30.7355 53.1721 30.803C52.9375 31.063 52.6928 31.3039 52.4276 31.5447C52.295 31.6602 52.1624 31.7758 52.0196 31.8914C51.9482 31.9492 51.8666 31.9974 51.8054 32.0552C51.938 31.93 51.887 31.9974 51.8361 32.0359C51.7953 32.0648 51.7544 32.0937 51.7034 32.1226C51.4077 32.3249 51.0915 32.5175 50.7651 32.6813C50.4795 32.8258 50.3163 33.2014 50.4183 33.5C50.4591 33.6156 50.5203 33.7312 50.6121 33.8179C50.7243 33.9335 50.9793 34.0491 51.1527 34.0298C51.836 33.9528 52.5194 33.9142 53.2027 33.9335C53.5393 33.9431 53.8657 33.9624 54.2023 33.9913C54.2839 34.0009 54.3756 34.0106 54.4572 34.0202C54.5184 34.0298 54.8244 34.0683 54.5592 34.0298C54.7326 34.0587 54.906 34.078 55.0794 34.1069C55.7424 34.2128 56.4053 34.3669 57.0479 34.5596C57.3742 34.6559 57.7006 34.7619 58.0168 34.8871C58.0882 34.916 58.1494 34.9353 58.2208 34.9642C58.2616 34.9834 58.3024 34.993 58.3432 35.0123C58.129 34.9353 58.2718 34.9834 58.3228 35.0027C58.486 35.0701 58.639 35.1375 58.8022 35.205C59.4243 35.4843 60.0261 35.7925 60.5972 36.1393C60.8828 36.3127 61.1582 36.4861 61.4234 36.6787C61.4948 36.7269 61.5662 36.775 61.6375 36.8232C61.6681 36.8521 61.7089 36.8714 61.7395 36.9003C61.5764 36.7847 61.6477 36.8328 61.6885 36.8617C61.8415 36.9773 61.9844 37.0833 62.1271 37.1989C62.6371 37.6034 63.1266 38.0465 63.5754 38.5089C63.81 38.7497 64.0344 39.0001 64.2588 39.2602C64.2996 39.318 64.3506 39.3661 64.3914 39.4239C64.2282 39.2409 64.422 39.4625 64.4526 39.5106C64.5546 39.6455 64.6566 39.7803 64.7585 39.9152C65.1869 40.5028 65.5745 41.1192 65.9009 41.755C65.9825 41.9187 66.0641 42.0825 66.1355 42.2366C66.1967 42.3714 66.064 42.0728 66.1252 42.2173C66.1456 42.2655 66.1661 42.3233 66.1865 42.3714C66.217 42.4485 66.2476 42.5256 66.2782 42.6026C66.421 42.9494 66.5434 43.3058 66.6454 43.6622C66.7576 44.0282 67.1962 44.2883 67.5838 44.1631C67.7674 44.1053 67.951 43.9993 68.0427 43.8356C68.1447 43.6525 68.1549 43.4792 68.1243 43.2769C68.1243 43.2673 68.0937 43.0842 68.1141 43.1998C68.1345 43.3154 68.104 43.142 68.104 43.1324C68.0938 43.065 68.0835 42.9975 68.0733 42.9301C68.0529 42.776 68.0325 42.6219 68.0223 42.4678C68.0019 42.227 67.9815 41.9861 67.9713 41.7453C67.9611 41.3697 67.9713 40.9844 67.9611 40.6087C67.9611 40.1367 67.9305 39.6744 67.8795 39.2024C67.8387 38.846 67.7878 38.4896 67.7368 38.1332C67.7062 37.9213 67.6756 37.7094 67.645 37.4878C67.6348 37.4493 67.6348 37.4108 67.6246 37.3722C67.594 37.1892 67.645 37.4878 67.6246 37.3722C67.6144 37.2663 67.594 37.17 67.5838 37.064C67.492 36.3801 67.4104 35.6866 67.39 34.9931C67.3798 34.6367 67.3798 34.2899 67.4104 33.9335C67.4206 33.7697 67.4308 33.5964 67.4614 33.4326C67.4206 33.6349 67.4818 33.3363 67.4818 33.2978C67.5022 33.2014 67.5124 33.1147 67.5328 33.0184C67.594 32.7198 67.6858 32.4308 67.7878 32.1515C67.8286 32.0263 67.8795 31.9011 67.9305 31.7758C67.9509 31.718 67.9714 31.6603 68.002 31.6121C68.0122 31.5736 68.0325 31.5447 68.0427 31.5061C68.1141 31.352 68.0121 31.5832 68.0427 31.5158C68.2875 31.0053 68.5629 30.514 68.8893 30.0516C68.9811 29.9264 69.1137 29.7916 69.1952 29.6567C69.185 29.6664 69.0831 29.7916 69.1647 29.6953C69.1953 29.6567 69.2259 29.6278 69.2565 29.5893C69.3075 29.5315 69.3584 29.4737 69.4094 29.4159C69.6236 29.1847 69.848 28.9632 70.0928 28.7513C70.2152 28.6453 70.3478 28.5394 70.4804 28.4334C70.5824 28.3564 70.4498 28.4623 70.4396 28.4623C70.4804 28.443 70.511 28.4045 70.5518 28.3853C70.6232 28.3371 70.6946 28.2889 70.7558 28.2408C71.0312 28.0578 71.3167 27.9036 71.6227 27.7591C71.9083 27.6243 72.0715 27.2294 71.9695 26.9404C71.8573 26.6225 71.5819 26.4299 71.2351 26.4106C70.8781 26.3914 70.5212 26.3625 70.1642 26.3239C70.0826 26.3143 70.001 26.3047 69.9194 26.295C69.8786 26.295 69.8378 26.2758 69.797 26.2758C70.001 26.2661 69.8684 26.2854 69.8072 26.2758C69.6236 26.2469 69.4401 26.2276 69.2667 26.1987C68.5731 26.0831 67.8898 25.9386 67.2268 25.7556C66.8902 25.6593 66.5638 25.563 66.2374 25.4474C66.0845 25.3896 65.9315 25.3414 65.7683 25.2836C65.7479 25.274 65.5337 25.1969 65.5337 25.1969C65.5643 25.2066 65.5949 25.2258 65.6255 25.2355C65.5949 25.2258 65.5643 25.2066 65.5337 25.1969C65.4929 25.1777 65.4419 25.1584 65.4011 25.1391C64.7586 24.8694 64.1466 24.5612 63.555 24.2048C63.2593 24.0218 62.9635 23.8388 62.6881 23.6365C62.6575 23.6172 62.6371 23.598 62.6065 23.5787C62.7799 23.6943 62.6371 23.6076 62.6065 23.5787C62.5453 23.5305 62.4739 23.4824 62.4127 23.4342C62.2699 23.3283 62.1373 23.2127 62.0047 23.0971C61.7498 22.8755 61.4948 22.6444 61.2602 22.4035C61.0154 22.1531 60.8012 21.8834 60.5666 21.633C60.7094 21.7871 60.5361 21.5944 60.5055 21.5463C60.4545 21.4788 60.4035 21.4211 60.3525 21.3536C60.2403 21.2091 60.1383 21.0647 60.0363 20.9202C59.8323 20.6312 59.6487 20.3326 59.4651 20.034C59.1081 19.4368 58.792 18.8203 58.4962 18.1846C58.486 18.1557 58.4656 18.1268 58.4554 18.0979C58.4452 18.069 58.4248 18.0401 58.4146 18.0112C58.4554 18.1075 58.4656 18.1171 58.435 18.0497C58.3942 17.963 58.3534 17.8667 58.3126 17.78C58.2412 17.6066 58.1698 17.4333 58.0984 17.2599C57.9556 16.9035 57.8128 16.5374 57.6802 16.181C57.4049 15.4393 57.1499 14.6977 56.8949 13.956C56.7725 13.5996 56.3543 13.3299 55.9566 13.4551C55.5486 13.561 55.263 13.9463 55.3956 14.3316C56.3135 17.0383 57.2723 19.8317 59.0571 22.1531C59.9649 23.3379 61.0562 24.3589 62.3413 25.1969C63.5551 25.9868 64.9116 26.584 66.3089 27.0175C67.9 27.5087 69.5624 27.7784 71.2351 27.8651C71.1025 27.4124 70.9801 26.9693 70.8476 26.5166C68.5323 27.605 66.9208 29.7723 66.2171 32.0937C65.7887 33.5097 65.8091 34.9834 65.9825 36.4283C66.0335 36.8328 66.0845 37.2278 66.1457 37.6323C66.1559 37.7286 66.1763 37.8153 66.1865 37.9117C66.1967 37.9502 66.1967 37.9887 66.2069 38.0272C66.2375 38.2103 66.1865 37.9117 66.2069 38.0369C66.2375 38.2199 66.2578 38.4125 66.2884 38.5956C66.3598 39.1639 66.4312 39.7322 66.4414 40.3005C66.4516 40.7339 66.4414 41.1674 66.4516 41.6009C66.472 42.2847 66.5536 42.9687 66.6556 43.6525C67.1452 43.5273 67.6348 43.3925 68.1345 43.2673C67.3492 40.6473 65.7173 38.2777 63.5754 36.4764C61.4336 34.6656 58.7818 33.3459 55.9668 32.7969C54.3961 32.4886 52.7642 32.3923 51.1731 32.585C51.3057 33.0377 51.4281 33.4808 51.5607 33.9335C54.0697 32.6331 55.7628 30.2925 56.6501 27.7688C57.1091 26.4588 57.3131 25.1006 57.4253 23.7232C57.5578 22.2013 57.5987 20.6794 57.5375 19.1574C57.4661 17.414 57.2722 15.6705 56.8949 13.9656C56.8133 13.5996 56.3339 13.3491 55.9566 13.4647C55.518 13.5707 55.314 13.9367 55.3956 14.3316Z" fill="#231F20"/>
</svg>
