<svg width="134" height="40" viewBox="0 0 134 40" fill="none" xmlns="http://www.w3.org/2000/svg">
<g clip-path="url(#clip0_13_284)">
<path fill-rule="evenodd" clip-rule="evenodd" d="M74.4539 25.4308C74.4539 25.7441 74.4115 26.1097 74.3692 26.3708C73.988 27.7285 72.9716 28.6162 71.7857 28.6162C70.7269 28.6162 69.9223 27.8851 69.9223 26.3185C69.9223 23.9164 72.0398 23.2898 74.4962 23.2898V25.4308H74.4539ZM78.2655 21.2533C78.2655 17.3368 76.9102 13.8381 72.2939 13.8381C69.9222 13.8381 68.0164 14.6736 67 15.4047L67.7623 18.5901C68.9482 17.7546 70.2611 17.2846 71.6163 17.2324C73.988 17.2324 74.3692 18.8512 74.3692 19.8956V20.1567C69.2446 20.1567 66.0259 22.3499 66.0259 26.7885C66.0259 29.5039 67.6776 32.0627 70.5575 32.0627C72.2939 32.0627 73.7762 31.2272 74.6656 29.8172H74.7503C74.7503 29.8172 75.3432 32.846 78.562 31.6971C78.3925 30.4439 78.3078 29.0862 78.3078 27.5196V21.2533H78.2655ZM0 8.45953L3.89633 28.094C4.53161 31.2794 5.63274 32.4804 8.85145 31.6971L10.9267 21.2533C11.4349 18.6423 11.8161 16.8146 12.1549 14.1514H12.1972C12.4513 16.8146 12.7901 18.6423 13.2137 21.2533L14.4842 28.5117C14.9501 31.0183 16.1359 32.5849 19.3123 31.6971L24.2674 8.51175H20.244L18.5499 18.5379C18.0841 21.4621 17.6606 23.7598 17.3641 26.423C17.0676 23.7598 16.6865 21.5666 16.2206 18.7467L14.4842 8.51175H10.2914L8.38559 18.4856C7.87737 21.5144 7.36915 23.9687 7.03034 26.5274H6.98799C6.64918 24.1253 6.22566 21.0444 5.7598 18.1201L4.23515 8.45953H0ZM31.6365 25.4308C31.6365 25.7441 31.6365 26.1097 31.5518 26.3708C31.1707 27.7285 30.1542 28.6162 28.9684 28.6162C27.9096 28.6162 27.1049 27.8851 27.1049 26.3185C27.1049 23.9164 29.2225 23.2898 31.6789 23.2898V25.4308H31.6365ZM35.4905 21.2533C35.4905 17.3368 34.1353 13.8381 29.519 13.8381C27.1473 13.8381 25.2415 14.6736 24.225 15.4047L24.9874 18.5901C26.1732 17.7546 27.4861 17.2846 28.8413 17.2324C31.213 17.2324 31.5942 18.8512 31.5942 19.8956V20.1567C26.4697 20.1567 23.2509 22.3499 23.2509 26.7885C23.2509 29.5039 24.9027 32.0627 27.7826 32.0627C29.519 32.0627 31.0013 31.2272 31.8906 29.8172H31.9753C31.9753 29.8172 32.5683 32.846 35.787 31.6971C35.6176 30.4439 35.5329 29.0862 35.5329 27.5196V21.2533H35.4905ZM41.3774 26.7363V8.45953H37.5657V31.6449H41.3774V26.7363ZM89.9968 8.51175V25.5875C89.9968 27.9373 90.3356 29.6084 91.1403 30.6005C91.818 31.4882 92.9191 32.0627 94.232 32.0627C95.3755 32.0627 96.4766 31.8016 96.9848 31.5405L96.9425 27.8329C96.5613 27.9896 96.0955 28.0418 95.5025 28.0418C94.1896 28.0418 93.7661 27.0496 93.7661 24.9086V18.4334H97.1119V13.9948H93.7661V8.45953L89.9968 8.51175ZM80.129 14.2559V31.6971H84.0676V22.7676C84.0676 22.2976 84.11 21.8799 84.1523 21.4621C84.4488 19.5822 85.5923 18.3812 87.2864 18.3812C87.7522 18.3812 88.0487 18.4334 88.4298 18.4856V13.8903C88.1334 13.8381 87.8369 13.7859 87.5828 13.7859C86.1005 13.7859 84.4488 14.9347 83.7288 17.4935H83.6441V14.2037L80.129 14.2559ZM43.622 14.2559V31.6971H47.4336V21.4621C47.4336 20.9922 47.476 20.47 47.603 20.0522C47.8995 19.0078 48.7042 17.8068 49.9324 17.8068C51.4994 17.8068 52.2193 19.4256 52.2193 21.7232V31.6449H56.0733V21.3055C56.0733 20.8355 56.1157 20.2611 56.2427 19.8956C56.5392 18.6423 57.5133 17.7546 58.5721 17.7546C60.1391 17.7546 60.9014 19.3211 60.9014 22.0888V31.6449H64.7554V21.4099C64.7554 16.0313 62.5107 13.8381 60.012 13.8381C58.8685 13.8381 58.0215 14.2037 57.2168 14.7781C56.5392 15.3003 55.9463 16.0313 55.4381 16.9713H55.3957C54.7604 15.0392 53.1934 13.7859 51.4994 13.8381C49.8053 13.7337 48.196 14.7781 47.3913 16.6057H47.3489V14.2559H43.622Z" fill="white"/>
<path fill-rule="evenodd" clip-rule="evenodd" d="M117.737 13.4726C118.499 13.4726 119.135 12.9504 119.219 12.376L119.939 1.8799C119.939 0.835509 118.965 0 117.737 0C116.509 0 115.535 0.835509 115.535 1.8799L116.297 12.376C116.339 13.0026 116.975 13.4726 117.737 13.4726ZM113.121 16.7624C113.502 15.9269 113.46 15.0392 113.078 14.6214L106.09 8.61619C105.37 8.09399 104.269 8.72063 103.676 10.0261C103.041 11.3316 103.168 12.846 103.888 13.3159L111.638 17.7546C112.104 17.9634 112.782 17.5457 113.121 16.7624ZM122.311 16.7102C122.692 17.5457 123.327 17.9634 123.836 17.7024L131.544 13.2637C132.264 12.7415 132.391 11.2794 131.755 9.97389C131.12 8.66841 130.061 8.04177 129.341 8.56397L122.353 14.6214C121.972 15.0392 121.93 15.9269 122.311 16.7102ZM117.737 26.5274C118.499 26.5274 119.135 27.0496 119.219 27.624L119.939 38.1201C119.939 39.1645 118.965 40 117.737 40C116.509 40 115.535 39.1645 115.535 38.1201L116.297 27.624C116.339 26.9974 116.975 26.5274 117.737 26.5274ZM122.311 23.2898C122.692 22.4543 123.327 22.0366 123.836 22.2454L131.544 26.6841C132.264 27.2063 132.391 28.6684 131.755 29.9739C131.12 31.2794 130.061 31.906 129.341 31.3838L122.353 25.3786C121.972 25.0131 121.93 24.0731 122.311 23.2898ZM113.121 23.2898C113.502 24.0731 113.46 25.0131 113.078 25.4308L106.09 31.436C105.37 31.9582 104.269 31.3316 103.676 30.0261C103.041 28.7206 103.168 27.2585 103.888 26.7363L111.638 22.2976C112.104 22.0366 112.782 22.4543 113.121 23.2898ZM133.195 30.4961H133.28C133.365 30.4961 133.449 30.4439 133.449 30.3916C133.449 30.2872 133.407 30.2872 133.322 30.2872H133.238V30.4961H133.195ZM133.195 30.9661H133.026V30.1305H133.28C133.407 30.1305 133.449 30.1305 133.534 30.1828C133.576 30.235 133.619 30.2872 133.619 30.3394C133.619 30.4439 133.576 30.4961 133.492 30.5483C133.576 30.6005 133.619 30.6527 133.619 30.7572C133.619 30.9138 133.661 30.9138 133.661 30.9661H133.492C133.449 30.9138 133.449 30.8616 133.449 30.7572C133.449 30.6527 133.407 30.6527 133.322 30.6527H133.238L133.195 30.9661ZM133.28 29.8695C132.984 29.8695 132.772 30.1828 132.772 30.5483C132.772 30.9138 132.984 31.2272 133.28 31.2272C133.576 31.2272 133.788 30.9138 133.788 30.5483C133.831 30.1828 133.576 29.8695 133.28 29.8695ZM133.28 29.7128C133.661 29.7128 133.958 30.0783 133.958 30.5483C133.958 31.0183 133.661 31.3838 133.28 31.3838C132.899 31.3838 132.56 31.0183 132.56 30.5483C132.602 30.0783 132.899 29.7128 133.28 29.7128Z" fill="white"/>
</g>
<defs>
<clipPath id="clip0_13_284">
<rect width="134" height="40" fill="white"/>
</clipPath>
</defs>
</svg>
